<?xml version="1.0" encoding="UTF-8"?>
<svg width="512" height="512" viewBox="0 0 512 512" xmlns="http://www.w3.org/2000/svg">
  <path fill="#ea4335" d="M256 64c-16 0-32 8-40 24-8-16-24-24-40-24s-32 8-40 24c-8-16-24-24-40-24s-32 8-40 24c0 32 16 64 40 80-24 16-40 48-40 80 0 16 8 32 24 40-16 8-24 24-24 40s8 32 24 40c32 0 64-16 80-40 16 24 48 40 80 40 16 0 32-8 40-24 8 16 24 24 40 24s32-8 40-24c8 16 24 24 40 24s32-8 40-24c0-32-16-64-40-80 24-16 40-48 40-80 0-16-8-32-24-40 16-8 24-24 24-40s-8-32-24-40c-32 0-64 16-80 40-16-24-48-40-80-40z"/>
  <circle fill="#fbbc05" cx="256" cy="256" r="64"/>
</svg>
