<?xml version="1.0" encoding="UTF-8"?>
<svg width="512" height="512" viewBox="0 0 512 512" xmlns="http://www.w3.org/2000/svg">
  <path fill="currentColor" d="M448 128c0-17.7-14.3-32-32-32H96c-17.7 0-32 14.3-32 32v64c0 17.7 14.3 32 32 32h320c17.7 0 32-14.3 32-32v-64zM96 128h32v64H96v-64zm320 64h-32v-64h32v64zm-96-32c0 8.8-7.2 16-16 16s-16-7.2-16-16 7.2-16 16-16 16 7.2 16 16zm-64 0c0 8.8-7.2 16-16 16s-16-7.2-16-16 7.2-16 16-16 16 7.2 16 16zm-64 0c0 8.8-7.2 16-16 16s-16-7.2-16-16 7.2-16 16-16 16 7.2 16 16z"/>
</svg>
