<?xml version="1.0" encoding="UTF-8"?>
<svg width="1200" height="800" viewBox="0 0 1200 800" xmlns="http://www.w3.org/2000/svg">
  <!-- Background gradient -->
  <defs>
    <linearGradient id="bgGradient" x1="0%" y1="0%" x2="100%" y2="100%">
      <stop offset="0%" stop-color="#1a237e" stop-opacity="0.8"/>
      <stop offset="100%" stop-color="#283593" stop-opacity="0.8"/>
    </linearGradient>
    <radialGradient id="haloGradient" cx="50%" cy="40%" r="50%" fx="50%" fy="40%">
      <stop offset="0%" stop-color="#ffeb3b" stop-opacity="0.3"/>
      <stop offset="100%" stop-color="#ffeb3b" stop-opacity="0"/>
    </radialGradient>
  </defs>
  
  <!-- Background -->
  <rect width="100%" height="100%" fill="url(#bgGradient)"/>
  
  <!-- Decorative elements -->
  <circle cx="600" cy="320" r="300" fill="url(#haloGradient)"/>
  
  <!-- Peacock feather pattern (subtle) -->
  <g opacity="0.1" fill="#4fc3f7">
    <path d="M200,700 C300,650 350,700 400,650 C450,600 500,650 550,600 C600,550 650,600 700,550 C750,500 800,550 850,500 C900,450 950,500 1000,450"/>
    <path d="M150,650 C250,600 300,650 350,600 C400,550 450,600 500,550 C550,500 600,550 650,500 C700,450 750,500 800,450 C850,400 900,450 950,400"/>
    <path d="M100,600 C200,550 250,600 300,550 C350,500 400,550 450,500 C500,450 550,500 600,450 C650,400 700,450 750,400 C800,350 850,400 900,350"/>
  </g>
  
  <!-- Lotus flowers (subtle) -->
  <g opacity="0.15" fill="#e91e63">
    <circle cx="200" cy="200" r="30"/>
    <circle cx="1000" cy="200" r="30"/>
    <circle cx="200" cy="600" r="30"/>
    <circle cx="1000" cy="600" r="30"/>
  </g>
  
  <!-- Flute silhouette -->
  <g transform="translate(600, 400) rotate(-30)">
    <rect x="-200" y="-15" width="400" height="30" rx="15" fill="#ffcc80" opacity="0.3"/>
    <circle cx="-170" cy="0" r="10" fill="#1a237e" opacity="0.3"/>
    <circle cx="-120" cy="0" r="10" fill="#1a237e" opacity="0.3"/>
    <circle cx="-70" cy="0" r="10" fill="#1a237e" opacity="0.3"/>
  </g>
</svg>
