<?xml version="1.0" encoding="UTF-8"?>
<svg width="512" height="512" viewBox="0 0 512 512" xmlns="http://www.w3.org/2000/svg">
  <path fill="#ffffff" d="M256 64c-30 0-60 10-80 30-20 20-30 50-30 80v160c0 30 10 60 30 80 20 20 50 30 80 30s60-10 80-30c20-20 30-50 30-80V174c0-30-10-60-30-80-20-20-50-30-80-30zm0 32c20 0 40 7 55 22 15 15 22 35 22 55v160c0 20-7 40-22 55-15 15-35 22-55 22s-40-7-55-22c-15-15-22-35-22-55V174c0-20 7-40 22-55 15-15 35-22 55-22z"/>
  <path fill="#ff0000" d="M256 64v32c20 0 40 7 55 22 15 15 22 35 22 55v160c0 20-7 40-22 55-15 15-35 22-55 22v32c30 0 60-10 80-30 20-20 30-50 30-80V174c0-30-10-60-30-80-20-20-50-30-80-30z"/>
</svg>
