<?xml version="1.0" encoding="UTF-8"?>
<svg width="512" height="512" viewBox="0 0 512 512" xmlns="http://www.w3.org/2000/svg">
  <path fill="#1a73e8" d="M256 64c-64 0-128 32-160 96 0 64 32 128 96 160 64 32 128 32 192 0 64-32 96-96 96-160-32-64-96-96-160-96zm0 32c48 0 96 24 128 72-16 48-48 88-96 112-48 24-96 24-144 0-48-24-80-64-96-112 32-48 80-72 128-72z"/>
  <circle fill="#34a853" cx="256" cy="256" r="64"/>
  <circle fill="#4285f4" cx="256" cy="256" r="32"/>
  <circle fill="#fbbc05" cx="256" cy="256" r="16"/>
</svg>
